<svg id="svg" version="1.1" xmlns="http://www.w3.org/2000/svg" xmlns:xlink="http://www.w3.org/1999/xlink" width="400" height="400" viewBox="0, 0, 400,400"><g id="svgg"><path id="path0" d="M244.005 73.762 C 243.649 74.156,242.941 75.694,242.431 77.180 C 240.988 81.387,240.214 82.722,238.599 83.791 C 235.925 85.560,233.579 89.500,230.650 97.138 C 228.810 101.938,228.698 101.915,228.347 96.665 C 227.708 87.134,224.551 81.475,218.195 78.468 C 214.034 76.499,211.759 77.349,210.577 81.311 C 209.624 84.504,209.117 85.163,207.813 84.902 C 205.438 84.427,204.812 85.374,204.491 89.922 C 204.322 92.311,203.805 95.294,203.218 97.266 C 200.914 105.005,200.589 109.223,201.758 116.211 C 204.084 130.111,203.684 132.021,197.873 134.804 C 195.042 136.159,195.229 136.615,196.338 131.059 C 198.259 121.430,198.463 113.845,197.087 103.152 C 196.795 100.881,196.438 97.529,196.293 95.703 C 195.572 86.618,194.929 86.475,185.744 93.358 C 171.621 103.942,169.196 111.119,174.373 127.013 C 176.837 134.577,176.829 134.527,175.557 134.207 C 172.238 133.374,171.929 133.006,169.154 126.563 C 161.949 109.834,158.071 104.756,150.677 102.364 C 147.626 101.377,146.353 99.600,146.657 96.755 C 147.101 92.608,144.705 91.850,140.974 94.958 C 139.815 95.923,137.860 97.471,136.629 98.397 C 133.315 100.893,131.870 102.686,129.924 106.720 C 126.514 113.786,126.674 118.076,130.561 123.758 C 131.196 124.686,131.655 125.503,131.581 125.573 C 131.506 125.642,130.215 126.364,128.711 127.177 C 120.868 131.415,118.822 137.123,124.805 138.076 C 128.579 138.677,133.124 141.016,130.519 141.016 C 128.427 141.016,121.959 142.899,117.253 144.878 C 114.676 145.962,111.429 147.135,110.038 147.485 C 106.729 148.316,105.078 149.326,105.078 150.520 C 105.078 152.160,107.366 153.415,108.426 152.355 C 109.035 151.747,116.849 149.614,118.480 149.612 C 119.298 149.610,121.195 149.419,122.695 149.186 C 124.881 148.847,126.201 148.886,129.329 149.381 C 134.940 150.270,136.887 150.177,141.029 148.824 C 143.008 148.177,145.881 147.469,147.412 147.250 C 148.943 147.032,151.250 146.685,152.539 146.480 C 159.192 145.423,171.898 146.128,176.367 147.803 C 179.351 148.922,180.451 148.928,186.523 147.858 C 192.100 146.875,198.530 146.339,203.320 146.455 C 212.132 146.670,211.708 146.731,216.296 144.616 C 223.015 141.518,223.102 141.502,230.380 142.004 C 234.527 142.290,234.833 142.261,235.653 141.494 C 236.453 140.745,237.700 140.281,243.750 138.476 C 246.626 137.618,250.456 135.316,253.441 132.653 C 256.607 129.828,257.165 129.828,263.048 132.657 C 268.022 135.048,269.009 135.144,270.186 133.348 C 271.828 130.842,266.771 125.935,260.547 123.994 C 252.943 121.622,253.174 121.971,255.798 116.841 C 260.722 107.219,261.596 102.770,258.813 101.502 C 257.234 100.783,256.210 101.847,253.326 107.201 C 249.231 114.805,246.976 116.758,239.320 119.328 C 234.830 120.835,234.752 120.609,238.314 116.406 C 246.753 106.447,250.576 97.818,251.060 87.630 C 251.470 79.013,247.074 70.371,244.005 73.762 " stroke="none" fill="#4c6b04" fill-rule="evenodd"></path><path id="path1" d="M235.705 141.457 C 234.996 142.249,234.748 142.274,230.469 141.997 C 223.035 141.516,223.013 141.520,216.296 144.616 C 211.708 146.731,212.132 146.670,203.320 146.455 C 198.530 146.339,192.100 146.875,186.523 147.858 C 180.451 148.928,179.351 148.922,176.367 147.803 C 171.898 146.128,159.192 145.423,152.539 146.480 C 151.250 146.685,148.965 147.031,147.461 147.249 C 137.337 148.715,129.845 155.153,119.712 171.094 C 114.121 179.891,112.903 183.539,112.043 194.073 C 111.031 206.462,115.314 225.173,122.162 238.281 C 123.565 240.967,128.223 250.107,132.514 258.594 C 141.052 275.480,142.212 277.430,148.984 286.264 C 154.987 294.095,155.704 295.240,160.658 304.904 C 162.964 309.404,165.737 314.265,166.819 315.706 C 171.896 322.465,181.273 327.495,190.039 328.162 C 192.402 328.342,195.742 328.600,197.461 328.735 C 201.118 329.023,206.722 328.176,208.928 327.001 C 209.711 326.585,211.422 325.724,212.730 325.089 C 215.848 323.575,221.030 318.444,225.542 312.401 C 228.957 307.828,233.347 303.441,238.281 299.672 C 243.880 295.395,247.333 291.290,255.912 278.711 C 261.384 270.687,269.365 256.969,271.617 251.714 C 272.343 250.019,273.757 247.003,274.758 245.011 C 282.476 229.660,286.577 195.928,282.676 179.883 C 278.628 163.233,277.798 161.685,269.187 154.738 C 259.127 146.621,251.241 142.508,243.254 141.213 C 238.187 140.391,236.613 140.442,235.705 141.457 M158.421 147.047 C 159.389 147.766,158.753 149.023,157.422 149.023 C 156.221 149.023,155.538 147.929,156.223 147.103 C 156.859 146.336,157.443 146.321,158.421 147.047 M215.820 149.419 C 215.820 150.402,215.667 150.586,214.849 150.586 C 213.736 150.586,213.329 149.517,214.092 148.597 C 214.877 147.652,215.820 148.101,215.820 149.419 M197.683 149.447 C 198.369 150.272,197.685 151.367,196.484 151.367 C 195.284 151.367,194.600 150.272,195.285 149.447 C 195.568 149.107,196.107 148.828,196.484 148.828 C 196.861 148.828,197.401 149.107,197.683 149.447 M186.328 150.391 C 187.172 151.968,185.308 153.511,184.063 152.266 C 183.557 151.760,183.430 150.294,183.854 149.870 C 184.403 149.321,185.928 149.642,186.328 150.391 M248.980 151.660 C 249.611 152.662,248.812 153.711,247.418 153.711 C 246.518 153.711,246.262 153.518,246.154 152.756 C 245.910 151.027,248.056 150.194,248.980 151.660 M177.266 153.549 C 177.423 154.900,176.498 155.671,175.416 155.091 C 173.976 154.321,174.529 152.235,176.124 152.420 C 176.896 152.510,177.177 152.788,177.266 153.549 M207.760 153.799 C 208.257 154.687,207.624 155.859,206.646 155.859 C 205.659 155.859,205.031 154.725,205.516 153.819 C 205.989 152.934,207.270 152.923,207.760 153.799 M240.017 153.993 C 241.317 155.849,240.357 158.184,238.719 157.150 C 237.970 156.677,237.305 154.587,237.633 153.733 C 237.974 152.844,239.315 152.991,240.017 153.993 M260.494 154.189 C 260.993 155.080,260.358 156.250,259.375 156.250 C 258.350 156.250,257.598 154.831,258.224 154.077 C 258.858 153.312,260.036 153.370,260.494 154.189 M143.359 155.232 C 143.359 156.378,142.415 156.812,141.629 156.027 C 140.844 155.241,141.278 154.297,142.425 154.297 C 143.150 154.297,143.359 154.506,143.359 155.232 M162.187 156.069 C 162.560 156.887,162.523 157.176,161.976 157.723 C 160.851 158.847,159.290 157.271,159.916 155.641 C 160.272 154.714,161.691 154.981,162.187 156.069 M227.126 156.337 C 227.929 157.483,227.910 159.224,227.092 159.538 C 225.609 160.107,224.270 157.137,225.469 155.938 C 226.131 155.275,226.433 155.348,227.126 156.337 M152.410 158.387 C 152.746 159.125,152.733 159.492,152.353 159.949 C 151.625 160.827,150.416 160.680,150.034 159.668 C 149.290 157.700,151.543 156.485,152.410 158.387 M250.977 159.332 C 250.977 160.645,249.821 161.317,248.991 160.486 C 248.018 159.513,248.612 158.125,249.936 158.278 C 250.739 158.371,250.977 158.611,250.977 159.332 M168.315 159.339 C 169.328 159.981,168.513 161.789,167.275 161.646 C 166.096 161.509,165.668 160.460,166.422 159.552 C 166.957 158.907,167.530 158.842,168.315 159.339 M267.746 161.551 C 268.507 162.313,268.516 162.665,267.792 163.266 C 266.546 164.300,264.587 162.774,265.598 161.556 C 266.249 160.772,266.964 160.770,267.746 161.551 M191.602 163.434 C 191.602 165.073,190.814 165.931,189.702 165.504 C 188.299 164.966,189.255 161.580,190.749 161.793 C 191.458 161.894,191.602 162.169,191.602 163.434 M180.465 163.863 C 181.199 164.747,180.633 167.083,179.606 167.409 C 178.006 167.917,177.104 165.406,178.381 163.996 C 179.165 163.129,179.822 163.088,180.465 163.863 M260.922 163.848 C 261.496 164.540,261.136 165.856,260.282 166.184 C 259.246 166.581,258.203 166.033,258.203 165.091 C 258.203 163.457,259.939 162.664,260.922 163.848 M132.091 165.014 C 132.646 166.233,132.278 167.188,131.254 167.188 C 130.347 167.188,129.455 165.623,129.819 164.673 C 130.183 163.724,131.600 163.937,132.091 165.014 M238.784 164.941 C 240.086 165.916,239.704 168.750,238.272 168.750 C 236.418 168.750,236.081 164.743,237.914 164.484 C 238.034 164.467,238.425 164.673,238.784 164.941 M202.656 165.313 C 203.828 166.484,202.991 169.531,201.498 169.531 C 200.557 169.531,199.926 168.214,200.240 166.903 C 200.704 164.958,201.668 164.324,202.656 165.313 M221.019 168.265 C 221.149 170.065,220.401 170.806,219.211 170.056 C 217.373 168.896,217.829 166.248,219.828 166.478 C 220.785 166.589,220.911 166.777,221.019 168.265 M251.085 167.014 C 252.576 168.059,252.057 170.703,250.360 170.703 C 248.934 170.703,247.979 168.092,249.023 167.048 C 249.816 166.256,249.998 166.253,251.085 167.014 M139.869 167.592 C 140.782 168.080,140.881 169.848,140.014 170.181 C 138.403 170.799,136.802 168.823,137.969 167.656 C 138.543 167.082,138.895 167.070,139.869 167.592 M155.469 172.461 C 156.066 173.180,155.374 174.219,154.297 174.219 C 153.920 174.219,153.392 173.955,153.125 173.633 C 152.528 172.913,153.220 171.875,154.297 171.875 C 154.674 171.875,155.201 172.139,155.469 172.461 M260.574 173.275 C 261.268 174.111,260.570 175.195,259.338 175.195 C 258.381 175.195,257.937 174.304,258.353 173.219 C 258.641 172.470,259.933 172.502,260.574 173.275 M270.625 173.906 C 271.581 174.863,270.477 177.734,269.153 177.734 C 268.791 177.734,267.578 176.645,267.578 176.320 C 267.578 175.806,268.796 173.873,269.230 173.699 C 270.003 173.388,270.125 173.406,270.625 173.906 M212.163 175.157 C 212.735 176.413,212.111 178.282,211.068 178.437 C 210.155 178.572,209.542 177.948,209.183 176.519 C 208.681 174.521,211.323 173.314,212.163 175.157 M169.685 175.618 C 170.392 177.462,169.462 178.502,168.014 177.487 C 167.210 176.925,166.921 175.787,167.448 175.260 C 167.945 174.763,169.449 175.003,169.685 175.618 M230.230 176.770 C 231.056 177.596,231.414 179.823,230.881 180.818 C 230.347 181.817,229.063 181.894,228.584 180.957 C 227.095 178.043,228.339 174.879,230.230 176.770 M123.236 177.727 C 123.809 178.360,123.847 178.609,123.444 179.094 C 122.747 179.934,121.628 179.830,120.950 178.861 C 119.750 177.148,121.794 176.134,123.236 177.727 M131.129 177.983 C 131.424 178.751,130.808 179.838,129.986 180.000 C 128.990 180.196,128.059 178.979,128.530 178.098 C 129.026 177.171,130.788 177.093,131.129 177.983 M248.814 179.662 C 249.728 181.368,248.922 183.514,247.563 182.993 C 246.961 182.762,246.094 181.192,246.094 180.333 C 246.094 178.934,248.153 178.426,248.814 179.662 M259.792 181.299 C 260.420 182.472,259.683 183.984,258.485 183.984 C 256.741 183.984,256.103 182.492,257.287 181.183 C 258.151 180.229,259.246 180.280,259.792 181.299 M278.683 181.374 C 279.609 182.843,277.277 185.063,275.958 183.969 C 275.149 183.297,275.251 182.686,276.376 181.473 C 277.429 180.337,278.013 180.312,278.683 181.374 M166.602 181.968 C 173.428 183.892,175.383 183.858,179.570 181.742 C 183.618 179.697,185.070 182.106,181.692 185.265 C 176.235 190.370,169.881 190.801,160.869 186.677 C 152.639 182.911,146.911 185.586,146.884 193.209 C 146.873 196.255,145.932 197.656,143.899 197.656 C 139.083 197.656,139.661 188.700,144.746 184.533 C 149.137 180.936,158.883 179.791,166.602 181.968 M269.751 184.140 C 270.218 185.999,269.828 186.914,268.570 186.914 C 266.876 186.914,265.916 185.174,266.968 184.011 C 267.991 182.881,269.453 182.949,269.751 184.140 M200.173 185.634 C 200.993 186.804,200.939 187.779,200.028 188.266 C 198.443 189.114,197.101 187.314,198.027 185.583 C 198.594 184.525,199.410 184.544,200.173 185.634 M160.182 187.514 C 161.231 188.075,161.183 188.292,159.010 192.737 C 157.414 196.004,155.078 201.621,155.078 202.195 C 155.078 202.277,157.260 202.344,159.926 202.344 L 164.774 202.344 165.786 203.546 C 167.079 205.083,167.058 205.659,165.655 207.061 L 164.513 208.203 158.721 208.205 L 152.930 208.206 150.926 212.404 C 146.341 222.010,140.255 226.851,138.071 222.628 C 137.104 220.758,137.357 219.651,139.209 217.659 C 141.087 215.638,143.501 212.018,144.390 209.893 L 144.959 208.529 142.160 208.659 C 136.662 208.914,137.538 206.786,143.740 204.823 C 146.835 203.843,147.306 203.572,147.710 202.539 C 150.885 194.437,154.302 189.341,157.552 187.866 C 159.492 186.985,159.253 187.017,160.182 187.514 M137.109 189.286 C 137.109 190.402,136.973 190.656,136.430 190.552 C 135.589 190.390,135.322 189.218,135.953 188.458 C 136.724 187.529,137.109 187.805,137.109 189.286 M123.633 191.754 C 123.633 193.913,122.733 194.684,121.507 193.575 C 120.541 192.701,120.490 191.884,121.327 190.690 C 122.415 189.136,123.633 189.698,123.633 191.754 M118.931 191.752 C 119.340 193.040,118.357 194.586,117.214 194.453 C 116.070 194.320,115.698 193.120,116.395 191.817 C 116.946 190.789,118.612 190.746,118.931 191.752 M175.684 193.384 C 177.053 193.861,177.429 194.825,176.928 196.573 C 176.495 198.081,176.575 198.171,177.901 197.667 C 183.168 195.665,184.759 199.498,182.031 207.617 C 180.256 212.902,180.199 213.281,181.177 213.281 C 182.506 213.281,185.537 209.258,187.495 204.894 C 191.014 197.051,199.702 193.823,204.594 198.542 C 209.165 202.952,204.362 209.176,195.996 209.683 C 192.556 209.891,192.320 210.199,194.083 212.172 C 196.757 215.165,203.007 213.658,206.931 209.073 C 210.146 205.317,214.137 199.157,213.913 198.299 C 213.396 196.322,215.884 193.308,218.084 193.246 C 221.425 193.151,222.401 195.467,220.096 198.018 L 218.708 199.555 220.522 201.227 C 222.979 203.492,224.330 206.229,224.372 209.032 L 224.405 211.228 226.129 209.815 C 227.078 209.038,228.762 206.995,229.872 205.275 C 234.832 197.591,241.517 194.600,246.259 197.942 C 247.244 198.636,248.489 199.315,249.026 199.450 C 249.563 199.584,250.431 200.204,250.955 200.827 L 251.909 201.960 251.163 204.129 C 247.690 214.223,250.615 216.295,255.864 207.460 C 257.613 204.515,258.714 203.436,259.615 203.782 C 261.416 204.473,255.894 214.318,252.374 216.690 C 248.625 219.217,243.359 216.530,243.359 212.090 L 243.359 210.867 241.780 212.865 C 236.917 219.017,229.510 219.589,228.292 213.906 C 227.898 212.063,227.824 212.046,226.059 213.393 C 219.804 218.168,211.292 219.196,207.705 215.610 L 206.213 214.118 204.376 215.251 C 198.358 218.965,189.766 217.684,187.698 212.765 L 187.218 211.623 185.768 213.527 C 182.831 217.382,179.244 218.615,176.260 216.795 C 173.762 215.272,173.679 213.640,175.781 207.375 C 177.654 201.794,177.744 200.781,176.372 200.781 C 175.548 200.781,175.161 201.256,173.843 203.877 C 170.881 209.767,168.027 209.551,170.707 203.639 L 171.883 201.045 171.095 199.416 C 169.850 196.845,171.077 193.862,173.633 193.247 C 174.063 193.144,174.432 193.039,174.453 193.014 C 174.475 192.989,175.029 193.156,175.684 193.384 M274.830 193.906 C 275.298 195.773,274.907 196.680,273.633 196.680 C 272.434 196.680,271.821 195.080,272.421 193.518 C 272.788 192.560,274.564 192.846,274.830 193.906 M131.416 194.108 C 132.807 195.645,130.603 197.344,129.129 195.871 C 128.395 195.137,128.348 194.465,128.984 193.828 C 129.670 193.143,130.644 193.255,131.416 194.108 M265.802 195.455 C 266.121 196.746,266.068 197.042,265.436 197.504 C 263.899 198.628,262.047 195.823,263.316 194.293 C 264.192 193.239,265.394 193.801,265.802 195.455 M198.633 200.648 C 196.373 201.837,192.791 206.202,193.496 206.907 C 193.954 207.365,197.107 206.176,198.913 204.865 C 202.902 201.968,202.673 198.522,198.633 200.648 M280.063 200.958 C 280.696 201.721,280.231 203.024,279.209 203.348 C 277.788 203.799,276.874 202.088,277.958 201.004 C 278.724 200.238,279.452 200.222,280.063 200.958 M241.147 201.977 C 236.237 204.408,231.495 213.214,234.887 213.602 C 236.996 213.844,239.978 210.588,243.681 204.004 L 245.273 201.172 244.023 201.172 C 243.336 201.172,242.042 201.535,241.147 201.977 M214.311 204.006 L 212.485 206.566 213.744 207.824 L 215.002 209.083 214.044 209.823 C 211.785 211.568,211.328 212.103,211.328 213.009 C 211.328 215.696,215.374 215.549,216.841 212.808 C 218.097 210.461,217.970 203.954,216.633 202.125 C 216.188 201.517,215.948 201.712,214.311 204.006 M270.774 202.930 C 271.642 204.835,269.811 206.764,268.438 205.391 C 267.932 204.885,267.824 203.567,268.206 202.571 C 268.588 201.574,270.263 201.808,270.774 202.930 M122.040 205.980 C 122.657 206.958,121.841 208.008,120.465 208.008 C 118.979 208.008,118.691 206.609,119.990 205.699 C 121.011 204.984,121.450 205.044,122.040 205.980 M129.837 207.903 C 130.523 208.998,129.244 210.045,127.944 209.453 C 127.004 209.024,126.628 207.877,127.231 207.274 C 127.714 206.792,129.395 207.198,129.837 207.903 M136.744 210.561 C 137.634 211.037,137.733 212.211,136.939 212.870 C 135.661 213.930,134.050 211.809,135.234 210.625 C 135.803 210.057,135.803 210.057,136.744 210.561 M275.586 212.891 C 275.586 214.044,273.985 214.535,273.589 213.504 C 273.200 212.490,273.745 211.653,274.705 211.789 C 275.351 211.881,275.586 212.175,275.586 212.891 M265.389 218.029 C 266.460 219.559,264.673 221.157,263.359 219.844 C 262.854 219.338,262.727 217.872,263.151 217.448 C 263.681 216.918,264.817 217.213,265.389 218.029 M121.016 218.828 C 122.195 220.008,120.997 221.878,119.556 221.107 C 118.785 220.694,118.452 219.178,119.010 218.620 C 119.425 218.205,120.505 218.317,121.016 218.828 M127.020 220.178 C 128.410 221.436,127.737 222.938,125.980 222.497 C 124.882 222.221,124.350 220.900,125.016 220.098 C 125.627 219.362,126.141 219.382,127.020 220.178 M184.693 221.178 C 184.791 222.033,184.625 222.286,183.836 222.484 C 182.654 222.781,182.031 222.455,182.031 221.539 C 182.031 219.708,184.485 219.375,184.693 221.178 M253.682 222.488 C 254.512 223.318,253.823 224.609,252.552 224.609 C 251.449 224.609,250.863 223.304,251.578 222.442 C 252.188 221.707,252.917 221.723,253.682 222.488 M137.663 224.733 C 139.055 225.751,137.495 228.024,136.035 227.105 C 135.103 226.518,134.989 225.613,135.751 224.852 C 136.518 224.085,136.757 224.070,137.663 224.733 M160.141 225.567 C 160.914 226.499,160.260 227.800,159.088 227.659 C 157.764 227.500,157.094 226.451,157.785 225.619 C 158.427 224.846,159.522 224.822,160.141 225.567 M205.453 226.348 C 206.377 227.462,205.102 229.191,203.741 228.668 C 202.973 228.374,202.778 227.697,203.164 226.660 C 203.535 225.662,204.747 225.497,205.453 226.348 M222.656 226.146 C 222.656 226.620,221.215 227.074,220.707 226.760 C 219.933 226.282,220.332 225.781,221.484 225.781 C 222.129 225.781,222.656 225.945,222.656 226.146 M176.335 226.409 C 177.193 226.738,177.139 228.779,176.259 229.250 C 174.684 230.093,173.525 228.093,174.833 226.786 C 175.533 226.085,175.508 226.092,176.335 226.409 M191.736 228.103 C 191.910 229.335,190.817 230.209,189.790 229.659 C 189.390 229.445,189.063 228.959,189.063 228.580 C 189.063 226.824,191.495 226.390,191.736 228.103 M268.164 229.688 C 268.164 231.227,266.954 231.795,266.035 230.688 C 265.168 229.643,265.850 228.054,267.103 228.198 C 268.032 228.305,268.164 228.491,268.164 229.688 M257.980 230.301 C 258.836 231.158,258.745 232.313,257.780 232.830 C 256.288 233.628,254.729 231.365,255.938 230.156 C 256.574 229.520,257.246 229.567,257.980 230.301 M229.609 230.938 C 230.328 231.656,230.168 232.737,229.272 233.216 C 227.725 234.044,226.510 231.774,228.027 230.891 C 228.915 230.374,229.050 230.378,229.609 230.938 M214.531 232.241 C 214.903 233.059,214.867 233.348,214.320 233.895 C 213.495 234.719,212.370 234.154,212.173 232.817 C 211.927 231.150,213.823 230.687,214.531 232.241 M178.454 232.831 C 188.232 237.155,182.355 251.650,171.959 248.851 C 167.446 247.635,168.781 242.969,173.642 242.969 C 178.927 242.969,180.179 238.008,175.230 236.676 C 165.690 234.107,153.654 251.047,156.871 262.514 C 159.125 270.546,168.563 273.600,172.820 267.675 C 174.851 264.848,177.801 263.887,179.036 265.650 C 180.220 267.340,177.694 270.508,173.460 272.645 C 162.247 278.305,150.624 273.330,148.789 262.085 C 146.174 246.064,165.433 227.073,178.454 232.831 M133.906 232.500 C 135.076 233.670,133.748 235.515,132.314 234.713 C 131.184 234.081,131.714 232.031,133.008 232.031 C 133.244 232.031,133.648 232.242,133.906 232.500 M245.117 233.356 C 245.117 234.762,244.088 235.532,243.197 234.793 C 241.977 233.781,242.777 231.891,244.331 232.114 C 244.912 232.197,245.117 232.522,245.117 233.356 M127.719 232.989 C 128.532 233.969,128.049 234.961,126.758 234.961 C 125.951 234.961,125.555 234.747,125.461 234.259 C 125.306 233.453,126.034 232.422,126.758 232.422 C 127.027 232.422,127.460 232.677,127.719 232.989 M153.449 233.528 C 153.589 234.515,152.550 235.938,151.689 235.938 C 150.815 235.938,150.233 234.228,150.767 233.229 C 151.405 232.037,153.268 232.245,153.449 233.528 M184.775 233.019 C 185.363 233.728,184.760 235.423,183.787 235.797 C 182.980 236.107,182.031 235.249,182.031 234.210 C 182.031 232.574,183.777 231.816,184.775 233.019 M196.567 234.908 C 198.925 236.700,196.994 242.003,191.536 248.724 C 188.670 252.252,187.061 263.867,189.437 263.867 C 190.831 263.867,199.219 251.092,199.219 248.968 C 199.219 247.148,202.779 246.828,204.548 248.490 C 205.802 249.668,205.698 250.910,204.095 253.906 C 200.674 260.302,200.000 261.776,200.000 262.858 C 200.000 267.324,205.785 261.495,211.888 250.878 C 213.947 247.297,214.666 246.854,216.906 247.791 C 219.521 248.883,219.746 249.815,218.202 253.160 C 215.620 258.754,214.908 263.737,216.655 263.986 C 218.340 264.226,222.196 258.328,223.641 253.302 C 227.045 241.457,234.767 232.391,238.770 235.540 C 241.117 237.386,239.085 241.836,232.292 249.729 C 227.562 255.225,225.912 266.179,230.074 264.455 C 232.558 263.426,236.076 258.347,234.951 257.414 C 232.258 255.179,234.041 248.221,237.502 247.460 C 241.059 246.679,243.464 252.183,241.581 256.796 C 241.043 258.115,244.680 257.419,246.243 255.904 C 247.799 254.396,249.219 254.267,249.219 255.634 C 249.219 257.873,245.616 260.451,241.959 260.828 C 240.069 261.024,239.785 261.184,238.868 262.569 C 233.726 270.339,224.255 270.943,222.779 263.595 C 222.572 262.568,222.524 262.599,220.854 264.820 C 216.686 270.364,210.146 269.391,209.200 263.085 L 208.933 261.305 207.490 263.051 C 202.639 268.922,196.270 270.456,193.775 266.354 C 193.132 265.296,192.959 265.196,192.744 265.755 C 192.214 267.136,189.200 268.472,187.073 268.268 C 181.528 267.735,180.502 261.048,184.243 249.808 C 188.026 238.439,193.115 232.285,196.567 234.908 M145.297 235.333 C 146.110 236.313,145.627 237.305,144.336 237.305 C 143.529 237.305,143.134 237.091,143.039 236.602 C 142.884 235.797,143.612 234.766,144.336 234.766 C 144.606 234.766,145.038 235.021,145.297 235.333 M263.081 235.532 C 263.639 237.288,261.666 238.654,260.537 237.293 C 260.158 236.836,260.145 236.468,260.481 235.731 C 261.032 234.522,262.720 234.393,263.081 235.532 M250.239 240.853 C 250.537 242.041,249.682 243.122,248.732 242.758 C 247.251 242.189,247.501 239.844,249.042 239.844 C 249.730 239.844,250.054 240.116,250.239 240.853 M137.094 243.927 C 137.896 244.893,137.424 245.898,136.170 245.898 C 134.769 245.898,134.001 244.867,134.738 243.978 C 135.380 243.205,136.475 243.181,137.094 243.927 M143.344 243.927 C 144.079 244.813,143.678 245.898,142.615 245.898 C 141.383 245.898,140.685 244.814,141.379 243.978 C 142.019 243.207,142.731 243.188,143.344 243.927 M255.004 245.592 C 254.864 246.761,253.904 247.498,252.983 247.145 C 252.113 246.811,252.137 244.686,253.017 244.193 C 254.059 243.610,255.150 244.378,255.004 245.592 M263.599 246.959 C 263.698 247.819,263.532 248.067,262.721 248.271 C 261.403 248.601,260.547 248.241,260.547 247.356 C 260.547 245.450,263.382 245.082,263.599 246.959 M255.887 254.525 C 256.259 254.974,256.287 255.322,255.989 255.794 C 255.467 256.623,254.305 256.633,253.789 255.815 C 252.857 254.337,254.759 253.167,255.887 254.525 M140.884 255.298 C 141.234 256.210,140.357 257.813,139.509 257.813 C 138.308 257.813,137.697 256.791,138.215 255.652 C 138.722 254.540,140.502 254.304,140.884 255.298 M146.073 256.811 C 146.424 257.234,146.430 257.576,146.094 258.202 C 145.578 259.166,144.240 259.132,143.617 258.138 C 142.769 256.784,145.034 255.559,146.073 256.811 M248.191 262.935 C 248.878 263.917,248.654 264.722,247.601 265.056 C 246.068 265.543,245.155 263.885,246.317 262.723 C 247.133 261.907,247.499 261.949,248.191 262.935 M256.990 263.036 C 257.903 264.136,256.324 265.716,255.224 264.803 C 254.659 264.334,254.506 263.202,254.948 262.760 C 255.389 262.319,256.522 262.472,256.990 263.036 M150.511 269.576 C 151.097 270.512,150.552 271.484,149.440 271.484 C 148.204 271.484,147.375 270.146,148.083 269.292 C 148.677 268.577,149.980 268.729,150.511 269.576 M249.777 270.926 C 250.863 272.013,249.983 273.598,248.416 273.377 C 247.251 273.213,246.942 271.864,247.859 270.947 C 248.651 270.155,249.002 270.151,249.777 270.926 M223.995 275.222 C 224.746 275.974,224.176 277.344,223.111 277.344 C 221.681 277.344,221.130 276.191,222.098 275.223 C 222.869 274.452,223.225 274.452,223.995 275.222 M182.057 276.186 C 183.003 276.692,183.038 277.977,182.119 278.469 C 180.674 279.242,179.381 277.416,180.547 276.250 C 181.115 275.682,181.115 275.682,182.057 276.186 M160.078 277.422 C 161.224 278.568,159.696 280.096,158.203 279.297 C 157.444 278.890,157.156 277.740,157.682 277.214 C 158.107 276.789,159.573 276.917,160.078 277.422 M230.602 278.190 C 230.896 278.660,230.867 279.012,230.496 279.459 C 229.780 280.322,228.625 280.231,228.112 279.272 C 227.241 277.644,229.613 276.613,230.602 278.190 M192.591 278.541 C 193.463 280.168,191.090 281.199,190.102 279.623 C 189.807 279.152,189.836 278.800,190.207 278.353 C 190.923 277.491,192.078 277.581,192.591 278.541 M241.810 278.541 C 242.326 279.505,241.717 280.469,240.591 280.469 C 239.593 280.469,238.858 279.038,239.474 278.295 C 240.147 277.484,241.310 277.607,241.810 278.541 M151.709 279.387 C 152.037 279.907,151.986 280.213,151.489 280.710 C 150.318 281.880,148.572 280.351,149.627 279.080 C 150.235 278.348,151.139 278.481,151.709 279.387 M249.203 279.473 C 249.906 280.320,249.333 281.641,248.264 281.641 C 246.975 281.641,246.315 280.733,246.862 279.712 C 247.363 278.776,248.526 278.657,249.203 279.473 M203.516 281.576 C 203.516 283.235,201.049 283.880,200.563 282.348 C 200.189 281.170,201.687 279.908,202.771 280.488 C 203.180 280.707,203.516 281.197,203.516 281.576 M169.350 281.663 C 169.791 282.377,169.173 283.921,168.340 284.186 C 166.739 284.694,165.653 282.509,167.090 281.672 C 167.986 281.150,169.030 281.146,169.350 281.663 M174.879 281.889 C 175.202 282.731,174.508 283.789,173.633 283.789 C 173.250 283.789,172.758 283.505,172.539 283.159 C 171.942 282.212,172.494 281.250,173.633 281.250 C 174.199 281.250,174.740 281.527,174.879 281.889 M215.401 281.863 C 216.242 282.704,215.524 284.081,214.333 283.910 C 213.351 283.770,213.003 282.642,213.687 281.817 C 214.288 281.093,214.641 281.103,215.401 281.863 M187.272 282.282 C 187.529 282.952,186.568 284.766,185.956 284.766 C 185.586 284.766,184.375 283.678,184.375 283.345 C 184.375 281.895,186.784 281.010,187.272 282.282 M195.688 284.552 C 196.260 285.242,195.902 286.559,195.053 286.885 C 193.751 287.384,192.795 285.486,193.828 284.453 C 194.454 283.827,195.115 283.862,195.688 284.552 M223.422 284.942 C 224.043 285.690,223.597 287.006,222.618 287.317 C 221.145 287.784,220.070 285.946,221.172 284.844 C 221.808 284.208,222.850 284.253,223.422 284.942 M240.072 285.651 C 240.417 286.738,239.261 287.634,238.227 287.080 C 237.320 286.595,237.282 285.317,238.160 284.826 C 239.032 284.338,239.754 284.650,240.072 285.651 M210.358 285.566 C 210.683 286.590,209.874 287.571,208.827 287.421 C 207.990 287.301,207.583 286.317,207.963 285.329 C 208.299 284.453,210.060 284.627,210.358 285.566 M232.348 286.400 C 232.497 287.695,231.163 288.629,230.248 287.870 C 229.661 287.382,229.489 285.876,229.966 285.399 C 230.663 284.702,232.227 285.359,232.348 286.400 M162.031 286.406 C 162.698 287.073,162.611 288.180,161.859 288.601 C 160.960 289.104,159.836 288.728,159.551 287.830 C 159.089 286.376,160.939 285.314,162.031 286.406 M181.807 288.504 C 182.648 289.344,181.930 290.721,180.739 290.551 C 179.655 290.396,179.388 289.076,180.306 288.405 C 181.170 287.773,181.070 287.766,181.807 288.504 M217.969 290.578 C 217.969 291.697,216.500 292.828,215.700 292.326 C 214.693 291.695,214.675 290.397,215.663 289.705 C 216.691 288.985,217.969 289.469,217.969 290.578 M191.377 290.962 C 191.927 291.988,191.054 293.082,189.826 292.908 C 188.752 292.756,188.364 291.662,189.078 290.802 C 189.734 290.011,190.913 290.094,191.377 290.962 M202.705 292.134 C 203.206 293.068,202.384 294.282,201.383 294.085 C 200.289 293.870,199.744 292.771,200.363 292.025 C 201.057 291.189,202.229 291.244,202.705 292.134 M174.761 292.411 C 175.128 293.367,174.282 294.596,173.353 294.457 C 172.186 294.283,171.592 293.195,172.238 292.416 C 172.899 291.619,174.457 291.616,174.761 292.411 M224.926 294.460 C 224.824 295.337,224.614 295.508,223.633 295.508 C 222.222 295.508,221.724 293.941,222.868 293.103 C 223.896 292.352,225.079 293.132,224.926 294.460 M168.281 294.219 C 168.963 294.901,168.855 296.012,168.066 296.418 C 167.189 296.869,166.503 296.615,165.984 295.644 C 165.230 294.234,167.123 293.060,168.281 294.219 M185.372 294.554 C 186.186 295.453,185.806 296.574,184.607 296.810 C 183.071 297.112,182.160 294.950,183.496 294.172 C 184.442 293.621,184.547 293.643,185.372 294.554 M210.696 295.403 C 211.282 296.338,210.179 297.449,209.028 297.084 C 208.218 296.827,207.875 295.380,208.480 294.775 C 208.941 294.314,210.245 294.683,210.696 295.403 M235.182 295.717 C 236.591 296.471,235.725 298.683,234.143 298.372 C 232.944 298.136,232.564 297.016,233.378 296.117 C 234.223 295.183,234.195 295.189,235.182 295.717 M197.865 297.309 C 198.214 298.408,197.236 299.386,196.137 299.037 C 195.338 298.784,194.982 297.336,195.573 296.745 C 196.164 296.154,197.612 296.510,197.865 297.309 M228.442 299.097 C 228.623 300.366,227.155 301.698,226.163 301.167 C 225.300 300.705,225.186 299.940,225.808 298.779 C 226.391 297.689,228.274 297.916,228.442 299.097 M179.492 300.195 C 179.492 301.171,179.336 301.367,178.558 301.367 C 177.308 301.367,176.622 300.283,177.332 299.428 C 178.212 298.368,179.492 298.823,179.492 300.195 M163.699 299.837 C 164.070 300.285,164.099 300.637,163.805 301.107 C 162.861 302.614,160.595 301.693,161.127 300.019 C 161.434 299.050,162.957 298.943,163.699 299.837 M216.806 299.816 C 217.414 300.548,216.742 302.344,215.861 302.344 C 214.106 302.344,213.484 301.025,214.676 299.833 C 215.452 299.057,216.172 299.052,216.806 299.816 M202.511 300.614 C 203.277 301.380,203.293 302.108,202.558 302.719 C 201.169 303.872,199.572 301.756,200.859 300.469 C 201.477 299.851,201.774 299.877,202.511 300.614 M192.111 302.392 C 192.238 303.483,191.474 304.057,190.430 303.657 C 189.831 303.427,189.622 301.915,190.121 301.416 C 190.757 300.779,191.994 301.386,192.111 302.392 M172.825 303.252 C 173.916 304.051,173.298 305.551,171.942 305.394 C 170.783 305.259,170.362 304.202,171.109 303.302 C 171.690 302.602,171.927 302.596,172.825 303.252 M184.793 304.916 C 185.487 305.752,184.789 306.836,183.557 306.836 C 182.494 306.836,182.093 305.750,182.828 304.864 C 183.441 304.126,184.153 304.145,184.793 304.916 M220.836 305.143 C 221.685 306.497,219.419 307.722,218.380 306.470 C 218.029 306.047,218.024 305.706,218.359 305.079 C 218.875 304.115,220.213 304.149,220.836 305.143 M199.609 306.526 C 199.609 308.053,198.065 308.947,197.098 307.980 C 196.293 307.174,196.324 306.801,197.275 305.850 C 198.173 304.952,199.609 305.368,199.609 306.526 M209.909 305.904 C 210.546 306.813,210.399 307.636,209.540 307.965 C 208.179 308.487,206.904 306.759,207.828 305.645 C 208.490 304.847,209.234 304.940,209.909 305.904 M178.096 309.321 C 178.604 310.271,177.769 311.467,176.736 311.268 C 175.948 311.117,175.565 310.111,175.931 309.157 C 176.239 308.354,177.635 308.460,178.096 309.321 M189.393 310.059 C 189.831 310.894,189.310 312.429,188.481 312.748 C 187.128 313.267,186.092 310.939,187.188 309.844 C 187.869 309.162,188.980 309.270,189.393 310.059 M203.648 310.224 C 204.224 311.138,203.381 312.891,202.366 312.891 C 201.138 312.891,200.592 311.480,201.364 310.301 C 202.063 309.235,203.005 309.203,203.648 310.224 M214.723 310.014 C 215.021 310.791,214.399 311.870,213.559 312.035 C 212.677 312.209,211.914 310.667,212.521 309.936 C 213.148 309.180,214.420 309.225,214.723 310.014 M172.418 312.335 C 172.914 313.627,171.475 314.866,170.458 314.021 C 169.720 313.409,169.785 312.225,170.582 311.779 C 171.368 311.339,172.124 311.568,172.418 312.335 M219.673 312.305 C 220.199 313.676,218.917 314.752,217.764 313.908 C 216.810 313.211,217.338 311.719,218.539 311.719 C 219.039 311.719,219.549 311.982,219.673 312.305 M194.063 313.359 C 195.255 314.552,193.957 316.761,192.411 316.168 C 191.432 315.792,191.475 314.157,192.484 313.379 C 193.271 312.773,193.474 312.770,194.063 313.359 M182.840 314.291 C 183.534 315.127,182.836 316.211,181.603 316.211 C 180.540 316.211,180.139 315.125,180.875 314.239 C 181.488 313.501,182.200 313.520,182.840 314.291 M208.137 315.527 C 208.558 316.347,208.329 317.212,207.518 317.856 C 206.163 318.934,204.689 316.561,205.938 315.313 C 206.620 314.630,207.731 314.739,208.137 315.527 M199.932 317.111 C 200.089 318.214,199.379 319.141,198.377 319.141 C 197.464 319.141,197.098 318.298,197.432 316.967 C 197.772 315.614,199.736 315.727,199.932 317.111 M178.886 316.967 C 179.507 317.716,178.762 319.141,177.749 319.141 C 176.562 319.141,175.707 318.057,176.186 317.160 C 176.660 316.275,178.218 316.163,178.886 316.967 M188.984 317.656 C 189.637 318.309,189.569 319.339,188.834 319.949 C 187.617 320.960,186.091 319.001,187.125 317.755 C 187.697 317.065,188.358 317.030,188.984 317.656 M212.510 319.348 C 213.166 320.139,212.414 321.875,211.415 321.875 C 209.868 321.875,209.169 319.918,210.449 319.172 C 211.410 318.612,211.937 318.657,212.510 319.348 M194.541 320.519 C 195.293 321.426,194.433 323.047,193.199 323.047 C 192.059 323.047,191.552 321.890,192.180 320.718 C 192.683 319.777,193.844 319.679,194.541 320.519 M203.047 320.781 C 203.727 321.461,203.621 323.031,202.877 323.317 C 201.495 323.847,200.234 322.028,201.187 320.880 C 201.760 320.190,202.421 320.155,203.047 320.781 M183.789 321.832 C 183.789 323.145,182.633 323.817,181.803 322.986 C 180.830 322.013,181.425 320.625,182.748 320.778 C 183.552 320.871,183.789 321.111,183.789 321.832 M199.761 322.754 C 200.680 324.214,198.407 325.774,197.389 324.382 C 196.726 323.476,196.741 323.236,197.508 322.469 C 198.270 321.708,199.174 321.822,199.761 322.754 M191.043 324.447 C 191.415 324.895,191.444 325.245,191.146 325.716 C 190.564 326.641,189.396 326.766,188.810 325.965 C 187.726 324.482,189.865 323.028,191.043 324.447 " stroke="none" fill="#b40c13" fill-rule="evenodd"></path><path id="path2" d="M156.398 147.442 C 156.098 148.225,156.544 148.828,157.422 148.828 C 158.398 148.828,158.775 148.149,158.189 147.444 C 157.583 146.714,156.678 146.713,156.398 147.442 M195.454 149.804 C 195.319 150.155,195.389 150.624,195.610 150.844 C 196.247 151.481,197.461 151.052,197.461 150.190 C 197.461 149.196,195.809 148.878,195.454 149.804 M184.403 149.983 C 183.686 150.426,184.055 152.117,184.905 152.279 C 185.885 152.466,186.460 151.812,186.157 150.857 C 185.866 149.940,185.094 149.555,184.403 149.983 M246.526 151.875 C 246.232 152.425,246.271 152.824,246.672 153.364 C 247.387 154.326,248.633 153.651,248.633 152.301 C 248.633 151.089,247.111 150.782,246.526 151.875 M175.488 152.629 C 174.773 152.879,174.892 154.670,175.642 154.959 C 176.388 155.245,177.394 154.101,177.091 153.313 C 176.853 152.692,176.158 152.395,175.488 152.629 M205.763 154.004 C 205.473 154.795,205.872 155.469,206.631 155.469 C 207.391 155.469,207.803 154.795,207.527 154.004 C 207.433 153.735,207.039 153.516,206.650 153.516 C 206.261 153.516,205.862 153.735,205.763 154.004 M238.022 154.517 C 237.699 155.360,238.523 157.031,239.262 157.031 C 240.041 157.031,240.385 156.122,240.074 154.882 C 239.795 153.772,238.403 153.524,238.022 154.517 M258.345 154.491 C 258.210 154.843,258.280 155.311,258.500 155.532 C 259.137 156.168,260.352 155.739,260.352 154.877 C 260.352 153.884,258.700 153.566,258.345 154.491 M160.156 156.055 C 159.593 156.733,160.230 157.813,161.193 157.813 C 161.971 157.813,162.288 156.740,161.715 156.050 C 161.106 155.317,160.768 155.318,160.156 156.055 M225.552 156.784 C 225.159 157.808,225.560 158.789,226.373 158.789 C 226.973 158.789,227.148 158.526,227.148 157.623 C 227.148 156.345,225.960 155.721,225.552 156.784 M150.185 158.611 C 149.879 159.106,150.686 160.156,151.373 160.156 C 151.946 160.156,152.451 159.084,152.127 158.558 C 151.827 158.073,150.495 158.109,150.185 158.611 M249.316 158.462 C 248.620 158.743,248.712 160.136,249.444 160.417 C 250.408 160.787,251.430 159.571,250.798 158.809 C 250.272 158.175,250.117 158.139,249.316 158.462 M166.629 160.112 C 166.274 160.687,167.542 161.521,168.029 161.033 C 168.259 160.803,168.329 160.424,168.185 160.190 C 167.869 159.678,166.926 159.631,166.629 160.112 M265.885 161.589 C 265.391 162.083,265.627 163.199,266.280 163.449 C 267.110 163.768,268.153 162.761,267.839 161.944 C 267.602 161.326,266.372 161.102,265.885 161.589 M189.454 163.083 C 188.981 164.328,189.331 165.234,190.285 165.234 C 191.315 165.234,192.085 163.513,191.416 162.707 C 190.683 161.824,189.874 161.980,189.454 163.083 M178.605 164.129 C 177.928 164.806,178.003 166.774,178.716 167.048 C 179.668 167.414,180.521 166.409,180.391 165.076 C 180.265 163.784,179.406 163.329,178.605 164.129 M258.854 163.932 C 258.161 164.625,258.611 166.016,259.529 166.016 C 260.433 166.016,260.938 165.374,260.938 164.226 C 260.938 163.664,259.346 163.440,258.854 163.932 M237.349 165.442 C 236.536 166.254,237.103 168.127,238.212 168.289 C 239.205 168.435,239.645 167.615,239.303 166.253 C 239.010 165.084,238.089 164.702,237.349 165.442 M200.816 165.778 C 199.940 166.834,200.437 168.945,201.563 168.945 C 202.459 168.945,202.539 168.802,202.539 167.193 C 202.539 165.309,201.746 164.658,200.816 165.778 M218.840 167.254 C 217.791 168.303,218.811 170.282,220.137 169.773 C 220.563 169.610,220.715 169.145,220.630 168.268 C 220.499 166.911,219.658 166.435,218.840 167.254 M248.970 167.772 C 248.555 168.854,249.498 170.383,250.492 170.242 C 251.937 170.036,251.761 167.428,250.291 167.259 C 249.574 167.177,249.133 167.348,248.970 167.772 M138.032 168.164 C 137.663 169.126,138.194 169.922,139.204 169.922 C 140.292 169.922,140.849 168.904,140.193 168.115 C 139.601 167.401,138.313 167.431,138.032 168.164 M153.594 172.344 C 152.834 173.104,153.049 173.438,154.297 173.438 C 154.941 173.438,155.469 173.297,155.469 173.125 C 155.469 172.760,154.639 171.875,154.297 171.875 C 154.168 171.875,153.852 172.086,153.594 172.344 M258.635 173.193 C 258.031 173.921,258.505 175.000,259.429 175.000 C 260.377 175.000,260.786 174.001,260.152 173.237 C 259.554 172.516,259.205 172.506,258.635 173.193 M268.765 174.683 C 267.834 175.683,267.762 176.295,268.505 176.912 C 269.667 177.876,271.646 175.550,270.667 174.370 C 270.051 173.628,269.694 173.686,268.765 174.683 M209.746 175.219 C 209.027 176.085,209.721 177.893,210.834 178.053 C 211.473 178.144,211.753 177.928,211.936 177.202 C 212.466 175.087,210.976 173.737,209.746 175.219 M167.720 175.974 C 167.585 176.327,167.662 176.802,167.891 177.031 C 168.486 177.626,169.613 177.082,169.458 176.275 C 169.285 175.376,168.033 175.159,167.720 175.974 M228.385 176.823 C 228.017 177.191,228.065 178.088,228.543 179.809 C 229.067 181.696,230.581 181.783,230.792 179.938 C 231.041 177.757,229.477 175.731,228.385 176.823 M121.499 177.913 C 120.967 178.553,121.264 179.297,122.052 179.297 C 122.644 179.297,123.161 178.235,122.830 177.699 C 122.512 177.186,122.039 177.261,121.499 177.913 M129.037 178.347 C 128.908 178.683,129.003 179.159,129.248 179.404 C 129.798 179.954,131.100 178.830,130.687 178.162 C 130.297 177.532,129.308 177.642,129.037 178.347 M246.745 179.557 C 246.233 180.069,246.497 181.531,247.219 182.185 C 248.349 183.207,249.340 182.105,248.768 180.463 C 248.387 179.371,247.381 178.921,246.745 179.557 M257.515 181.313 C 256.283 182.545,257.768 184.479,259.163 183.459 C 260.079 182.789,259.823 181.091,258.785 180.942 C 258.352 180.880,257.781 181.047,257.515 181.313 M276.349 181.809 C 275.583 182.978,275.835 183.984,276.893 183.984 C 277.893 183.984,278.604 183.058,278.448 181.959 C 278.268 180.698,277.130 180.617,276.349 181.809 M150.977 181.768 C 144.606 183.393,141.016 187.644,141.016 193.564 C 141.016 196.484,141.659 197.266,144.060 197.266 C 146.031 197.266,146.484 196.603,146.484 193.723 C 146.484 185.395,152.086 182.650,161.133 186.544 C 170.085 190.397,176.086 190.085,181.051 185.508 C 184.980 181.887,183.523 179.651,178.976 182.324 C 176.496 183.782,171.522 183.845,167.383 182.471 C 164.010 181.351,154.253 180.933,150.977 181.768 M267.281 184.048 C 266.505 184.823,266.719 185.868,267.797 186.575 C 269.197 187.492,270.201 186.583,269.644 184.902 C 269.243 183.692,268.062 183.266,267.281 184.048 M198.455 185.721 C 197.652 186.688,198.104 188.086,199.219 188.086 C 199.941 188.086,200.229 187.852,200.323 187.186 C 200.447 186.312,199.818 185.156,199.219 185.156 C 199.057 185.156,198.713 185.410,198.455 185.721 M156.524 188.701 C 154.035 190.349,152.367 192.772,149.798 198.467 C 147.257 204.098,147.390 203.942,144.336 204.859 C 138.235 206.690,137.187 208.463,142.298 208.306 C 143.956 208.255,145.313 208.322,145.313 208.455 C 145.313 209.339,141.636 215.320,139.942 217.192 C 137.663 219.710,137.272 221.415,138.598 223.052 C 141.218 226.288,147.803 219.734,151.850 209.863 L 152.691 207.813 158.699 207.813 C 165.126 207.813,166.406 207.399,166.406 205.320 C 166.406 202.972,164.374 202.260,158.661 202.610 L 154.595 202.859 154.878 201.918 C 155.549 199.683,159.097 191.609,160.024 190.209 C 161.843 187.460,159.755 186.561,156.524 188.701 M135.820 188.805 C 135.710 189.093,135.755 189.549,135.921 189.817 C 136.124 190.145,136.287 189.973,136.417 189.294 C 136.617 188.245,136.174 187.882,135.820 188.805 M121.502 190.799 C 120.765 191.687,121.154 193.145,122.167 193.289 C 123.104 193.422,124.061 191.796,123.661 190.753 C 123.397 190.064,122.089 190.091,121.502 190.799 M116.882 191.504 C 115.597 193.067,116.772 195.282,118.153 193.901 C 118.932 193.122,118.919 191.555,118.132 191.253 C 117.324 190.943,117.347 190.938,116.882 191.504 M273.145 193.249 C 272.870 193.348,272.656 194.076,272.656 194.913 C 272.656 196.376,273.142 196.931,274.121 196.590 C 274.390 196.496,274.609 195.840,274.609 195.132 C 274.609 193.779,273.967 192.954,273.145 193.249 M172.699 193.904 C 170.691 195.017,170.099 197.954,171.518 199.759 L 172.333 200.795 171.127 203.371 C 168.285 209.444,170.458 209.611,173.633 203.563 C 175.050 200.863,175.304 200.586,176.367 200.586 C 178.062 200.586,178.037 201.491,176.194 206.967 C 173.876 213.851,174.220 216.247,177.658 217.163 C 180.576 217.941,183.022 216.776,185.578 213.391 L 187.222 211.212 187.799 212.344 C 190.451 217.547,197.905 218.754,204.152 214.992 C 206.462 213.601,206.455 213.601,207.428 215.294 C 209.526 218.944,218.919 217.941,225.688 213.345 C 227.613 212.037,228.125 211.831,228.125 212.362 C 228.125 216.446,232.820 218.779,236.984 216.763 C 238.520 216.019,242.969 211.640,242.969 210.871 C 242.969 210.693,243.145 210.547,243.359 210.547 C 243.574 210.547,243.750 211.312,243.750 212.247 C 243.750 217.696,250.038 219.290,254.017 214.849 C 256.315 212.283,259.766 206.359,259.766 204.978 C 259.766 202.987,258.541 203.885,256.026 207.719 C 252.231 213.505,250.346 214.990,249.759 212.654 C 249.373 211.113,249.866 207.115,250.763 204.529 C 251.818 201.485,251.383 200.358,248.915 199.745 C 248.330 199.600,247.188 198.949,246.377 198.300 C 241.907 194.720,235.065 197.775,229.842 205.684 C 228.085 208.344,226.147 210.389,224.414 211.413 C 224.170 211.557,224.018 210.668,224.009 209.045 C 223.989 205.506,222.662 203.077,219.306 200.437 C 218.223 199.585,218.222 199.584,219.040 199.011 C 220.523 197.972,221.589 195.847,221.092 194.919 C 219.442 191.836,214.319 193.946,214.247 197.737 C 214.225 198.950,213.915 199.860,213.205 200.805 C 212.649 201.544,211.404 203.379,210.438 204.883 C 205.162 213.097,197.622 216.510,193.852 212.391 C 192.042 210.412,192.292 209.904,195.214 209.633 C 205.097 208.714,209.823 201.651,203.172 197.741 C 198.101 194.759,191.218 197.763,188.150 204.297 C 183.379 214.460,178.505 217.228,181.660 207.983 C 184.678 199.139,182.976 195.744,176.788 198.267 C 176.158 198.524,176.084 198.452,176.333 197.822 C 177.729 194.282,175.790 192.192,172.699 193.904 M129.048 194.336 C 128.672 195.314,129.216 196.094,130.273 196.094 C 131.435 196.094,131.943 195.172,131.246 194.331 C 130.623 193.580,129.336 193.583,129.048 194.336 M263.750 194.219 C 262.597 195.371,263.598 197.960,264.990 197.426 C 266.101 196.999,265.626 193.750,264.453 193.750 C 264.324 193.750,264.008 193.961,263.750 194.219 M201.695 200.188 C 203.403 201.896,198.694 206.435,194.373 207.245 C 192.937 207.515,192.894 207.491,193.175 206.594 C 194.430 202.590,199.948 198.441,201.695 200.188 M245.313 201.222 C 245.313 202.728,239.358 211.500,237.347 212.957 C 231.679 217.063,232.357 209.228,238.131 203.907 C 240.773 201.471,245.313 199.774,245.313 201.222 M277.886 201.340 C 277.497 202.353,278.042 203.191,279.002 203.055 C 279.648 202.963,279.883 202.669,279.883 201.953 C 279.883 200.800,278.282 200.308,277.886 201.340 M217.368 203.196 C 219.042 208.834,217.209 215.234,213.919 215.234 C 210.374 215.234,209.900 211.557,213.266 210.163 C 214.945 209.467,214.684 208.246,212.607 207.083 C 212.061 206.778,212.263 206.334,214.030 203.950 C 216.490 200.631,216.599 200.607,217.368 203.196 M268.512 202.901 C 268.078 204.032,268.536 205.271,269.435 205.398 C 270.467 205.545,270.898 204.735,270.542 203.319 C 270.271 202.239,268.876 201.951,268.512 202.901 M120.000 205.938 C 119.336 206.602,119.419 207.794,120.150 208.074 C 121.133 208.451,122.532 206.847,121.893 206.076 C 121.289 205.349,120.637 205.301,120.000 205.938 M127.794 207.377 C 127.003 207.878,127.423 209.162,128.424 209.305 C 129.473 209.454,129.989 208.451,129.293 207.612 C 128.740 206.947,128.526 206.913,127.794 207.377 M135.156 211.133 C 134.768 211.600,134.768 211.837,135.156 212.305 C 136.124 213.471,137.778 212.578,137.077 211.268 C 136.610 210.395,135.815 210.339,135.156 211.133 M273.610 212.537 C 273.083 213.390,274.517 214.322,275.242 213.598 C 275.980 212.859,275.661 212.109,274.609 212.109 C 274.205 212.109,273.755 212.302,273.610 212.537 M263.353 218.649 C 263.483 219.774,264.601 220.320,265.315 219.607 C 266.002 218.919,265.269 217.578,264.206 217.578 C 263.372 217.578,263.247 217.734,263.353 218.649 M119.141 219.739 C 119.141 220.925,120.150 221.424,120.943 220.631 C 121.724 219.850,121.216 218.750,120.075 218.750 C 119.336 218.750,119.141 218.956,119.141 219.739 M125.141 220.508 C 124.767 221.482,125.308 222.266,126.355 222.266 C 127.047 222.266,127.344 222.054,127.344 221.563 C 127.344 220.160,125.596 219.323,125.141 220.508 M182.682 220.573 C 182.034 221.221,182.450 222.266,183.357 222.266 C 184.317 222.266,184.781 221.662,184.480 220.801 C 184.300 220.284,183.121 220.134,182.682 220.573 M251.823 222.526 C 251.328 223.021,251.565 224.136,252.218 224.387 C 252.578 224.525,253.112 224.399,253.404 224.107 C 253.696 223.815,253.822 223.281,253.683 222.921 C 253.433 222.268,252.318 222.031,251.823 222.526 M135.997 224.950 C 135.125 225.511,135.627 226.758,136.724 226.758 C 137.498 226.758,137.695 226.561,137.695 225.787 C 137.695 224.761,136.899 224.369,135.997 224.950 M158.263 225.487 C 157.662 226.088,157.694 226.759,158.349 227.303 C 159.068 227.899,160.156 227.437,160.156 226.534 C 160.156 225.582,158.876 224.874,158.263 225.487 M220.508 226.172 C 220.641 226.387,221.134 226.560,221.605 226.557 C 222.301 226.552,222.351 226.480,221.875 226.172 C 221.105 225.675,220.200 225.675,220.508 226.172 M203.308 226.992 C 202.994 227.980,203.555 228.640,204.548 228.451 C 205.004 228.365,205.319 227.915,205.397 227.243 C 205.557 225.861,203.736 225.643,203.308 226.992 M174.759 227.126 C 174.410 228.037,174.763 229.083,175.466 229.218 C 176.242 229.368,177.049 228.048,176.715 227.177 C 176.419 226.407,175.049 226.371,174.759 227.126 M189.714 227.604 C 189.276 228.042,189.424 229.202,189.941 229.393 C 190.805 229.710,191.406 229.257,191.406 228.288 C 191.406 227.373,190.365 226.952,189.714 227.604 M266.422 228.692 C 265.739 229.514,266.084 230.645,267.060 230.784 C 268.078 230.930,268.666 229.551,267.953 228.692 C 267.360 227.977,267.015 227.977,266.422 228.692 M255.991 230.690 C 255.652 231.572,256.345 232.617,257.269 232.617 C 258.440 232.617,258.307 230.316,257.127 230.148 C 256.575 230.070,256.151 230.272,255.991 230.690 M227.734 231.445 C 227.188 232.104,227.798 233.203,228.711 233.203 C 228.981 233.203,229.420 232.939,229.688 232.617 C 230.234 231.958,229.624 230.859,228.711 230.859 C 228.441 230.859,228.002 231.123,227.734 231.445 M212.340 232.275 C 212.009 233.139,213.012 234.171,213.864 233.844 C 214.261 233.692,214.460 233.259,214.383 232.717 C 214.227 231.620,212.717 231.293,212.340 232.275 M170.508 232.289 C 162.713 233.953,154.916 240.704,151.120 249.075 C 143.423 266.050,156.575 280.432,172.735 272.711 C 178.838 269.795,181.363 265.234,176.875 265.234 C 175.271 265.234,175.098 265.365,172.065 268.872 C 167.314 274.365,157.826 269.628,156.258 260.980 C 153.989 248.470,168.676 231.585,176.953 237.186 C 180.125 239.332,177.594 243.883,173.590 243.233 C 171.796 242.942,169.770 244.316,169.610 245.931 C 169.263 249.442,176.231 249.882,180.075 246.592 C 187.679 240.083,180.972 230.055,170.508 232.289 M132.184 232.979 C 131.828 233.905,132.331 234.840,133.104 234.691 C 133.537 234.608,133.789 234.204,133.789 233.594 C 133.789 232.480,132.556 232.008,132.184 232.979 M243.010 233.127 C 242.523 234.035,243.051 234.882,243.992 234.703 C 245.083 234.496,245.255 232.422,244.180 232.422 C 243.744 232.422,243.217 232.739,243.010 233.127 M126.042 233.073 C 125.547 233.568,125.783 234.683,126.437 234.933 C 127.430 235.315,128.398 234.198,127.751 233.418 C 127.223 232.783,126.482 232.633,126.042 233.073 M151.176 233.393 C 150.543 234.156,150.950 235.156,151.893 235.156 C 152.862 235.156,153.595 234.256,153.285 233.448 C 152.980 232.653,151.815 232.623,151.176 233.393 M182.409 233.619 C 181.930 234.513,182.479 235.547,183.433 235.547 C 184.104 235.547,184.891 234.093,184.613 233.368 C 184.295 232.539,182.902 232.698,182.409 233.619 M191.353 236.386 C 185.685 242.525,180.764 259.512,183.019 265.149 C 184.427 268.668,190.092 269.048,192.470 265.783 L 193.225 264.747 194.064 266.169 C 196.575 270.424,203.260 268.338,208.321 261.719 L 209.366 260.352 209.371 262.109 C 209.390 268.950,216.507 270.377,220.892 264.420 L 222.617 262.076 223.062 263.729 C 225.049 271.108,233.899 269.950,239.181 261.621 C 239.765 260.700,240.124 260.546,241.708 260.538 C 244.912 260.523,248.654 258.111,248.915 255.892 C 249.081 254.479,248.319 254.522,246.518 256.026 C 243.899 258.215,240.635 258.475,241.411 256.434 C 242.452 253.696,241.581 248.977,239.865 248.058 C 236.175 246.083,232.216 252.196,234.561 256.250 C 234.871 256.787,235.248 257.469,235.398 257.766 C 236.154 259.266,231.354 264.844,229.307 264.844 C 225.711 264.844,227.540 254.945,232.136 249.533 C 238.445 242.102,240.648 237.579,238.839 235.770 C 235.328 232.258,226.858 242.355,223.790 253.710 C 222.443 258.698,217.960 264.983,216.226 264.317 C 214.673 263.722,215.438 258.444,217.787 253.542 C 219.440 250.092,219.445 249.935,217.915 248.647 C 215.593 246.694,214.246 247.255,212.036 251.096 C 207.199 259.502,202.898 264.615,200.861 264.380 C 198.958 264.160,199.418 261.877,202.470 256.403 C 205.429 251.095,205.690 249.757,204.025 248.447 C 202.085 246.921,200.400 247.452,199.095 250.000 C 197.033 254.026,192.875 261.129,191.733 262.576 C 186.205 269.578,186.773 254.561,192.312 247.266 C 198.259 239.432,199.065 234.766,194.471 234.766 C 193.069 234.766,192.645 234.986,191.353 236.386 M143.620 235.417 C 143.182 235.854,143.330 237.015,143.848 237.205 C 144.711 237.523,145.313 237.069,145.313 236.100 C 145.313 235.185,144.272 234.765,143.620 235.417 M260.736 235.958 C 260.352 237.166,261.430 238.226,262.304 237.501 C 263.173 236.779,262.894 235.380,261.850 235.231 C 261.264 235.148,260.922 235.371,260.736 235.958 M248.404 240.860 C 248.057 241.278,248.042 241.558,248.350 241.865 C 248.889 242.405,250.000 242.001,250.000 241.265 C 250.000 240.451,248.963 240.188,248.404 240.860 M134.925 244.290 C 134.589 245.163,135.070 245.703,136.183 245.703 C 136.977 245.703,137.140 245.535,137.039 244.824 C 136.890 243.777,135.278 243.370,134.925 244.290 M141.566 244.288 C 141.250 245.112,141.693 245.703,142.628 245.703 C 143.218 245.703,143.383 245.486,143.289 244.828 C 143.143 243.807,141.900 243.418,141.566 244.288 M253.008 244.388 C 252.277 245.118,252.731 246.930,253.613 246.805 C 254.301 246.707,254.492 246.425,254.492 245.513 C 254.492 244.387,253.649 243.747,253.008 244.388 M261.198 246.354 C 260.492 247.060,261.226 248.438,262.309 248.438 C 262.788 248.438,263.600 247.143,263.418 246.668 C 263.195 246.088,261.679 245.873,261.198 246.354 M253.906 255.273 C 253.906 256.119,254.064 256.282,254.785 256.180 C 255.362 256.098,255.664 255.786,255.664 255.273 C 255.664 254.761,255.362 254.449,254.785 254.367 C 254.064 254.265,253.906 254.428,253.906 255.273 M138.893 255.303 C 137.979 256.217,138.276 257.227,139.458 257.227 C 140.271 257.227,140.430 257.040,140.430 256.087 C 140.430 254.730,139.792 254.405,138.893 255.303 M144.145 256.831 C 143.496 257.613,143.928 258.594,144.922 258.594 C 145.365 258.594,145.830 258.328,145.954 258.003 C 146.179 257.418,145.491 256.250,144.922 256.250 C 144.760 256.250,144.410 256.511,144.145 256.831 M246.544 262.846 C 245.773 263.334,246.163 264.629,247.122 264.767 C 248.102 264.907,248.657 263.821,248.006 263.036 C 247.491 262.416,247.268 262.387,246.544 262.846 M255.078 263.649 C 255.078 264.701,255.817 265.053,256.529 264.342 C 257.241 263.630,256.888 262.891,255.836 262.891 C 255.346 262.891,255.078 263.159,255.078 263.649 M148.516 269.219 C 147.561 270.174,148.605 271.669,149.902 271.204 C 150.791 270.885,150.196 268.750,149.219 268.750 C 149.090 268.750,148.773 268.961,148.516 269.219 M248.145 270.957 C 247.457 271.241,247.535 273.025,248.247 273.298 C 249.076 273.616,250.060 272.687,249.921 271.718 C 249.804 270.903,249.054 270.582,248.145 270.957 M222.005 275.616 C 221.875 275.955,222.056 276.520,222.408 276.872 C 223.207 277.671,224.415 276.746,223.996 275.655 C 223.678 274.826,222.318 274.800,222.005 275.616 M180.466 276.761 C 180.034 277.281,180.051 277.484,180.570 278.003 C 181.407 278.840,182.512 278.375,182.352 277.252 C 182.199 276.182,181.169 275.914,180.466 276.761 M157.878 278.182 C 158.020 279.180,159.201 279.627,159.885 278.943 C 160.395 278.433,159.962 277.941,158.659 277.547 C 157.868 277.307,157.766 277.390,157.878 278.182 M228.599 277.808 C 227.913 278.493,228.016 279.211,228.865 279.666 C 229.849 280.192,230.817 279.156,230.223 278.213 C 229.690 277.368,229.168 277.238,228.599 277.808 M190.495 278.385 C 190.000 278.880,190.237 279.995,190.890 280.246 C 191.719 280.564,192.762 279.558,192.448 278.741 C 192.211 278.123,190.982 277.899,190.495 278.385 M239.573 278.767 C 239.197 279.748,240.602 280.660,241.344 279.917 C 241.652 279.609,241.797 279.080,241.667 278.741 C 241.356 277.930,239.887 277.949,239.573 278.767 M247.015 279.886 C 246.879 280.240,247.025 280.786,247.338 281.099 C 248.120 281.881,249.292 281.375,249.142 280.321 C 248.994 279.283,247.374 278.951,247.015 279.886 M201.190 281.033 C 200.481 281.887,200.986 282.893,202.049 282.742 C 202.693 282.651,202.930 282.356,202.930 281.646 C 202.930 280.506,201.922 280.151,201.190 281.033 M172.879 281.864 C 172.560 282.183,172.402 282.712,172.527 283.040 C 172.865 283.920,174.391 283.562,174.532 282.569 C 174.681 281.526,173.655 281.088,172.879 281.864 M167.057 281.901 C 166.661 282.298,166.747 283.517,167.191 283.791 C 167.976 284.277,169.141 283.560,169.141 282.591 C 169.141 281.659,167.758 281.201,167.057 281.901 M185.239 282.104 C 184.571 282.772,184.651 283.965,185.382 284.245 C 186.307 284.600,187.397 283.356,186.880 282.535 C 186.331 281.666,185.814 281.530,185.239 282.104 M213.932 281.901 C 213.360 282.473,213.689 283.594,214.430 283.594 C 215.350 283.594,215.709 283.096,215.389 282.262 C 215.144 281.624,214.395 281.438,213.932 281.901 M193.748 284.964 C 193.315 285.485,193.332 285.687,193.851 286.206 C 194.689 287.044,195.793 286.578,195.633 285.455 C 195.480 284.385,194.451 284.117,193.748 284.964 M221.354 285.026 C 220.654 285.726,221.112 287.109,222.044 287.109 C 223.013 287.109,223.730 285.945,223.244 285.160 C 222.970 284.716,221.751 284.629,221.354 285.026 M238.379 285.040 C 237.712 285.288,237.761 286.585,238.448 286.849 C 239.333 287.189,240.104 286.022,239.420 285.379 C 239.116 285.093,238.647 284.941,238.379 285.040 M208.086 285.680 C 207.783 286.469,208.397 287.204,209.226 287.046 C 210.414 286.820,210.434 285.156,209.249 285.156 C 208.720 285.156,208.196 285.392,208.086 285.680 M230.107 285.884 C 229.598 286.835,230.473 288.123,231.389 287.771 C 232.209 287.456,232.227 285.706,231.413 285.393 C 230.555 285.064,230.543 285.069,230.107 285.884 M160.043 286.572 C 159.479 287.136,159.791 288.237,160.586 288.489 C 161.574 288.803,162.234 288.241,162.044 287.249 C 161.905 286.517,160.554 286.060,160.043 286.572 M215.715 289.910 C 215.051 290.574,215.113 291.775,215.825 292.048 C 216.654 292.366,217.638 291.437,217.499 290.468 C 217.363 289.520,216.404 289.221,215.715 289.910 M189.062 291.212 C 188.628 291.735,188.642 291.934,189.148 292.441 C 189.911 293.203,191.521 292.492,191.328 291.478 C 191.161 290.600,189.711 290.430,189.062 291.212 M172.868 292.323 C 171.958 292.988,172.320 294.141,173.438 294.141 C 174.462 294.141,174.888 293.080,174.157 292.349 C 173.682 291.874,173.487 291.870,172.868 292.323 M200.532 292.382 C 200.397 292.733,200.467 293.202,200.688 293.422 C 201.325 294.059,202.539 293.630,202.539 292.768 C 202.539 291.774,200.887 291.456,200.532 292.382 M222.917 293.229 C 222.773 293.372,222.656 293.900,222.656 294.401 C 222.656 295.494,224.370 295.718,224.770 294.677 C 225.184 293.598,223.704 292.442,222.917 293.229 M166.156 294.729 C 166.018 295.089,166.178 295.642,166.518 295.982 C 167.348 296.812,168.448 296.336,168.289 295.217 C 168.135 294.132,166.526 293.764,166.156 294.729 M183.653 294.486 C 182.862 294.987,183.282 296.271,184.283 296.414 C 185.333 296.564,185.848 295.560,185.152 294.722 C 184.600 294.056,184.385 294.022,183.653 294.486 M208.484 295.425 C 208.175 296.232,208.779 296.972,209.617 296.810 C 210.655 296.611,210.579 295.150,209.522 294.999 C 209.066 294.934,208.599 295.126,208.484 295.425 M233.612 296.267 C 232.903 297.122,233.408 298.128,234.471 297.977 C 235.115 297.885,235.352 297.591,235.352 296.880 C 235.352 295.741,234.344 295.385,233.612 296.267 M195.744 297.021 C 195.093 297.805,195.648 298.892,196.628 298.751 C 197.587 298.614,197.977 297.319,197.206 296.830 C 196.482 296.371,196.259 296.400,195.744 297.021 M226.250 298.516 C 225.032 299.733,226.246 301.855,227.544 300.777 C 228.311 300.141,228.288 298.584,227.507 298.284 C 226.720 297.982,226.798 297.968,226.250 298.516 M177.473 299.835 C 177.064 300.902,178.369 301.876,179.155 301.091 C 179.954 300.292,179.587 299.219,178.516 299.219 C 178.072 299.219,177.603 299.496,177.473 299.835 M161.470 300.194 C 161.335 300.546,161.405 301.014,161.625 301.235 C 162.262 301.872,163.477 301.442,163.477 300.581 C 163.477 299.587,161.825 299.269,161.470 300.194 M214.941 299.864 C 213.875 300.304,214.372 302.014,215.527 301.881 C 216.378 301.784,216.602 301.556,216.602 300.787 C 216.602 299.825,215.934 299.454,214.941 299.864 M200.836 300.910 C 200.172 301.710,200.717 302.799,201.710 302.657 C 202.301 302.573,202.539 302.260,202.539 301.568 C 202.539 300.453,201.537 300.066,200.836 300.910 M190.138 302.051 C 189.883 302.746,190.217 303.516,190.775 303.516 C 191.497 303.516,192.152 302.706,191.920 302.101 C 191.662 301.429,190.380 301.393,190.138 302.051 M171.368 303.372 C 170.976 303.764,171.029 304.992,171.449 305.252 C 172.135 305.676,173.089 304.987,172.970 304.153 C 172.852 303.328,171.884 302.856,171.368 303.372 M183.086 304.934 C 182.417 305.604,182.820 306.694,183.691 306.570 C 184.266 306.489,184.570 306.177,184.570 305.669 C 184.570 304.895,183.605 304.416,183.086 304.934 M218.489 305.304 C 218.080 306.370,219.385 307.345,220.171 306.559 C 220.969 305.761,220.603 304.688,219.531 304.688 C 219.088 304.688,218.619 304.965,218.489 305.304 M197.355 305.926 C 196.677 306.604,196.759 307.684,197.510 307.973 C 198.375 308.304,199.282 307.475,199.140 306.483 C 199.004 305.536,198.045 305.236,197.355 305.926 M207.954 306.055 C 207.611 306.948,208.091 307.813,208.930 307.813 C 209.854 307.813,210.329 306.733,209.725 306.005 C 209.137 305.297,208.235 305.322,207.954 306.055 M176.013 309.615 C 175.872 309.985,175.919 310.450,176.118 310.649 C 176.722 311.254,177.930 310.792,177.930 309.956 C 177.930 308.948,176.375 308.672,176.013 309.615 M187.386 310.010 C 186.883 310.513,187.099 312.130,187.700 312.361 C 188.530 312.679,189.513 311.749,189.374 310.776 C 189.259 309.968,187.938 309.458,187.386 310.010 M201.592 310.316 C 200.829 311.235,201.236 312.305,202.349 312.305 C 203.167 312.305,203.320 312.120,203.320 311.138 C 203.320 309.819,202.377 309.371,201.592 310.316 M212.672 310.194 C 212.259 310.862,213.562 311.985,214.112 311.435 C 214.356 311.190,214.451 310.715,214.322 310.378 C 214.052 309.673,213.062 309.563,212.672 310.194 M170.454 312.305 C 170.109 313.204,170.622 314.135,171.381 313.989 C 172.229 313.826,172.525 312.514,171.816 312.065 C 171.053 311.581,170.708 311.642,170.454 312.305 M192.171 314.093 C 191.608 315.145,191.957 316.016,192.943 316.016 C 193.989 316.016,194.753 314.605,194.120 313.842 C 193.460 313.047,192.677 313.147,192.171 314.093 M181.133 314.309 C 180.464 314.979,180.867 316.069,181.738 315.945 C 182.313 315.864,182.617 315.552,182.617 315.044 C 182.617 314.270,181.651 313.791,181.133 314.309 M205.846 316.041 C 205.368 316.934,205.917 317.969,206.870 317.969 C 207.541 317.969,208.329 316.515,208.050 315.790 C 207.732 314.961,206.339 315.119,205.846 316.041 M197.843 316.666 C 196.959 317.550,197.278 318.555,198.443 318.555 C 199.200 318.555,199.440 318.329,199.533 317.530 C 199.678 316.278,198.721 315.788,197.843 316.666 M176.791 316.920 C 175.802 317.643,176.402 318.823,177.683 318.673 C 178.927 318.529,179.247 317.397,178.203 316.838 C 177.666 316.551,177.263 316.574,176.791 316.920 M187.262 318.135 C 186.906 319.061,187.409 319.997,188.182 319.848 C 188.615 319.764,188.867 319.360,188.867 318.750 C 188.867 317.636,187.634 317.164,187.262 318.135 M210.308 319.699 C 209.919 320.713,210.464 321.550,211.424 321.414 C 212.070 321.322,212.305 321.028,212.305 320.313 C 212.305 319.159,210.704 318.668,210.308 319.699 M192.464 320.556 C 191.970 321.051,192.172 322.567,192.762 322.793 C 193.492 323.073,194.609 321.982,194.449 321.144 C 194.323 320.482,192.947 320.074,192.464 320.556 M201.313 321.289 C 200.970 322.182,201.451 323.047,202.290 323.047 C 202.703 323.047,203.143 322.783,203.266 322.461 C 203.609 321.568,203.129 320.703,202.290 320.703 C 201.876 320.703,201.437 320.967,201.313 321.289 M181.772 321.706 C 181.643 322.043,181.724 322.505,181.953 322.734 C 182.561 323.342,183.594 322.809,183.594 321.887 C 183.594 320.924,182.128 320.778,181.772 321.706 M197.456 323.063 C 197.136 324.072,197.689 324.736,198.689 324.543 C 199.163 324.452,199.414 324.068,199.414 323.432 C 199.414 322.125,197.847 321.830,197.456 323.063 M188.802 324.835 C 188.392 325.902,189.698 326.876,190.483 326.091 C 191.282 325.292,190.915 324.219,189.844 324.219 C 189.401 324.219,188.932 324.496,188.802 324.835 " stroke="none" fill="#eac073" fill-rule="evenodd"></path><path id="path3" d="M156.506 148.926 C 156.605 149.087,157.018 149.219,157.422 149.219 C 157.826 149.219,158.238 149.087,158.338 148.926 C 158.438 148.765,158.025 148.633,157.422 148.633 C 156.818 148.633,156.406 148.765,156.506 148.926 M213.967 148.926 C 213.673 149.723,214.077 150.391,214.853 150.391 C 215.743 150.391,216.096 149.883,215.780 149.059 C 215.497 148.322,214.223 148.228,213.967 148.926 M237.728 154.157 C 237.592 154.510,237.574 154.891,237.686 155.004 C 237.799 155.116,237.891 154.998,237.891 154.740 C 237.891 154.482,238.286 154.113,238.770 153.918 C 239.639 153.569,239.639 153.565,238.811 153.540 C 238.351 153.527,237.863 153.804,237.728 154.157 M160.106 155.762 C 159.621 156.381,159.634 156.395,160.254 155.909 C 160.833 155.455,161.042 155.455,161.621 155.909 C 162.241 156.395,162.254 156.381,161.769 155.762 C 161.474 155.386,161.100 155.078,160.938 155.078 C 160.775 155.078,160.401 155.386,160.106 155.762 M225.237 156.477 C 225.107 156.817,225.018 157.388,225.039 157.747 C 225.061 158.119,225.197 157.980,225.356 157.422 C 225.546 156.756,225.901 156.455,226.470 156.474 C 226.929 156.490,227.215 156.358,227.106 156.181 C 226.764 155.627,225.486 155.830,225.237 156.477 M227.240 158.167 C 227.058 158.863,226.803 159.036,226.194 158.877 C 225.752 158.761,225.488 158.826,225.608 159.021 C 226.272 160.095,228.056 158.971,227.644 157.738 C 227.554 157.468,227.372 157.661,227.240 158.167 M150.256 158.105 C 150.156 158.267,150.568 158.398,151.172 158.398 C 151.775 158.398,152.188 158.267,152.088 158.105 C 151.988 157.944,151.576 157.813,151.172 157.813 C 150.768 157.813,150.355 157.944,150.256 158.105 M166.604 159.761 C 166.467 159.983,166.625 160.048,166.977 159.913 C 167.313 159.784,167.854 159.899,168.178 160.168 C 168.669 160.576,168.727 160.550,168.522 160.016 C 168.252 159.314,166.985 159.146,166.604 159.761 M166.406 160.902 C 166.406 161.593,167.573 161.885,168.093 161.323 C 168.452 160.934,168.442 160.887,168.049 161.109 C 167.771 161.267,167.288 161.183,166.975 160.923 C 166.558 160.577,166.406 160.571,166.406 160.902 M130.230 165.010 C 129.875 165.936,130.378 166.872,131.151 166.723 C 131.584 166.639,131.836 166.235,131.836 165.625 C 131.836 164.511,130.603 164.039,130.230 165.010 M202.825 167.188 C 202.825 167.939,202.905 168.247,203.004 167.871 C 203.102 167.495,203.102 166.880,203.004 166.504 C 202.905 166.128,202.825 166.436,202.825 167.188 M218.700 167.090 C 218.215 167.708,218.229 167.723,218.843 167.241 C 219.216 166.949,219.796 166.815,220.133 166.944 C 220.484 167.079,220.642 167.015,220.505 166.792 C 220.136 166.196,219.293 166.335,218.700 167.090 M220.657 168.665 C 220.528 169.441,220.585 169.805,220.802 169.589 C 220.999 169.392,221.094 168.815,221.015 168.307 C 220.892 167.525,220.837 167.580,220.657 168.665 M153.613 173.707 C 153.989 173.805,154.604 173.805,154.980 173.707 C 155.356 173.609,155.049 173.528,154.297 173.528 C 153.545 173.528,153.237 173.609,153.613 173.707 M167.796 175.354 C 167.676 175.549,167.927 175.617,168.354 175.505 C 169.470 175.213,169.882 176.503,168.911 177.250 C 168.500 177.566,168.415 177.749,168.722 177.658 C 169.695 177.369,170.130 176.308,169.558 175.619 C 168.991 174.935,168.135 174.806,167.796 175.354 M121.387 177.375 C 120.606 177.830,120.488 178.727,121.154 179.139 C 121.442 179.317,121.499 179.245,121.311 178.942 C 121.146 178.675,121.317 178.135,121.702 177.710 C 122.466 176.865,122.394 176.788,121.387 177.375 M128.984 177.813 C 128.416 178.381,128.377 179.165,128.902 179.489 C 129.130 179.631,129.184 179.458,129.034 179.065 C 128.874 178.649,129.048 178.206,129.503 177.873 C 129.902 177.582,130.053 177.344,129.840 177.344 C 129.627 177.344,129.242 177.555,128.984 177.813 M122.559 178.897 C 121.858 179.717,122.066 179.926,122.997 179.336 C 123.292 179.149,123.466 178.796,123.384 178.552 C 123.295 178.283,122.969 178.419,122.559 178.897 M156.163 181.146 C 157.081 181.228,158.488 181.227,159.288 181.143 C 160.088 181.059,159.336 180.992,157.617 180.993 C 155.898 180.995,155.244 181.063,156.163 181.146 M256.665 182.472 C 256.637 183.194,257.702 184.226,258.082 183.845 C 258.220 183.707,258.123 183.594,257.865 183.594 C 257.607 183.594,257.238 183.198,257.043 182.715 C 256.804 182.120,256.682 182.041,256.665 182.472 M181.811 184.863 L 180.664 186.133 181.934 184.986 C 183.117 183.916,183.383 183.594,183.081 183.594 C 183.014 183.594,182.442 184.165,181.811 184.863 M272.356 194.922 C 272.356 195.674,272.437 195.981,272.535 195.605 C 272.633 195.229,272.633 194.614,272.535 194.238 C 272.437 193.862,272.356 194.170,272.356 194.922 M232.983 201.270 L 231.836 202.539 233.105 201.392 C 233.804 200.761,234.375 200.189,234.375 200.122 C 234.375 199.820,234.053 200.086,232.983 201.270 M195.874 202.441 L 194.727 203.711 195.996 202.564 C 197.179 201.494,197.445 201.172,197.143 201.172 C 197.076 201.172,196.505 201.743,195.874 202.441 M157.129 202.624 C 157.720 202.713,158.687 202.713,159.277 202.624 C 159.868 202.534,159.385 202.461,158.203 202.461 C 157.021 202.461,156.538 202.534,157.129 202.624 M161.035 208.092 C 161.626 208.182,162.593 208.182,163.184 208.092 C 163.774 208.003,163.291 207.930,162.109 207.930 C 160.928 207.930,160.444 208.003,161.035 208.092 M243.276 211.719 C 243.371 212.363,243.516 212.891,243.599 212.891 C 243.682 212.891,243.750 212.363,243.750 211.719 C 243.750 211.074,243.605 210.547,243.427 210.547 C 243.249 210.547,243.181 211.074,243.276 211.719 M180.959 234.603 C 181.618 235.385,183.006 235.786,182.561 235.065 C 182.441 234.872,182.244 234.814,182.121 234.936 C 181.999 235.058,181.534 234.850,181.086 234.474 C 180.285 233.799,180.283 233.801,180.959 234.603 M163.458 241.113 L 161.914 242.773 163.574 241.229 C 165.118 239.793,165.414 239.453,165.118 239.453 C 165.055 239.453,164.307 240.200,163.458 241.113 M248.535 240.129 C 248.267 240.223,248.047 240.496,248.047 240.736 C 248.047 241.056,248.164 241.055,248.485 240.734 C 248.726 240.493,249.166 240.388,249.462 240.502 C 249.758 240.616,250.000 240.621,250.000 240.513 C 250.000 240.193,249.060 239.946,248.535 240.129 M249.848 241.629 C 249.689 242.044,249.322 242.203,248.823 242.073 C 248.395 241.961,248.144 242.029,248.265 242.224 C 248.385 242.419,248.715 242.578,248.999 242.578 C 249.588 242.578,250.604 241.490,250.299 241.185 C 250.188 241.073,249.985 241.273,249.848 241.629 M173.535 243.238 C 173.911 243.336,174.526 243.336,174.902 243.238 C 175.278 243.140,174.971 243.059,174.219 243.059 C 173.467 243.059,173.159 243.140,173.535 243.238 M241.895 252.930 C 241.900 253.789,241.980 254.095,242.073 253.609 C 242.167 253.123,242.163 252.420,242.065 252.046 C 241.967 251.673,241.891 252.070,241.895 252.930 M155.958 258.398 C 155.962 259.258,156.042 259.563,156.136 259.077 C 156.229 258.592,156.226 257.888,156.128 257.515 C 156.030 257.142,155.954 257.539,155.958 258.398 M241.359 257.531 C 241.547 257.719,242.207 257.811,242.824 257.734 C 243.856 257.605,243.829 257.578,242.481 257.391 C 241.641 257.275,241.163 257.334,241.359 257.531 M182.148 260.938 C 182.148 262.119,182.222 262.603,182.311 262.012 C 182.401 261.421,182.401 260.454,182.311 259.863 C 182.222 259.272,182.148 259.756,182.148 260.938 M227.450 262.109 C 227.450 263.076,227.526 263.472,227.619 262.988 C 227.713 262.505,227.713 261.714,227.619 261.230 C 227.526 260.747,227.450 261.143,227.450 262.109 M215.325 262.109 C 215.325 262.861,215.405 263.169,215.504 262.793 C 215.602 262.417,215.602 261.802,215.504 261.426 C 215.405 261.050,215.325 261.357,215.325 262.109 M232.202 262.988 L 231.055 264.258 232.324 263.111 C 233.022 262.479,233.594 261.908,233.594 261.841 C 233.594 261.539,233.271 261.805,232.202 262.988 M149.680 279.785 C 149.762 280.362,150.073 280.664,150.586 280.664 C 151.099 280.664,151.410 280.362,151.492 279.785 C 151.594 279.064,151.432 278.906,150.586 278.906 C 149.740 278.906,149.577 279.064,149.680 279.785 M179.910 288.937 C 179.492 290.028,180.699 290.952,181.499 290.153 C 181.850 289.801,182.032 289.236,181.902 288.897 C 181.588 288.081,180.228 288.108,179.910 288.937 M161.584 299.512 C 161.484 299.673,161.897 299.805,162.500 299.805 C 163.103 299.805,163.516 299.673,163.416 299.512 C 163.317 299.351,162.904 299.219,162.500 299.219 C 162.096 299.219,161.683 299.351,161.584 299.512 M217.993 312.095 C 217.246 312.556,217.666 313.867,218.560 313.867 C 219.053 313.867,219.379 313.565,219.454 313.038 C 219.583 312.134,218.774 311.612,217.993 312.095 " stroke="none" fill="#d47a4e" fill-rule="evenodd"></path><path id="path4" d="M213.772 150.000 C 213.969 150.722,215.173 150.999,215.723 150.449 C 216.003 150.169,215.857 150.115,215.251 150.273 C 214.717 150.413,214.224 150.289,213.993 149.958 C 213.677 149.506,213.639 149.513,213.772 150.000 M205.724 153.418 C 205.625 153.579,206.037 153.711,206.641 153.711 C 207.244 153.711,207.656 153.579,207.557 153.418 C 207.457 153.257,207.045 153.125,206.641 153.125 C 206.236 153.125,205.824 153.257,205.724 153.418 M237.679 153.542 C 237.538 153.771,237.527 154.064,237.656 154.193 C 237.785 154.322,237.891 154.222,237.891 153.971 C 237.891 153.367,239.154 153.388,239.844 154.004 C 240.310 154.419,240.315 154.390,239.875 153.809 C 239.299 153.048,238.076 152.899,237.679 153.542 M141.269 154.872 C 141.148 155.188,141.310 155.707,141.629 156.027 C 142.415 156.812,143.359 156.378,143.359 155.232 C 143.359 154.153,141.657 153.860,141.269 154.872 M205.724 155.566 C 205.824 155.728,206.236 155.859,206.641 155.859 C 207.045 155.859,207.457 155.728,207.557 155.566 C 207.656 155.405,207.244 155.273,206.641 155.273 C 206.037 155.273,205.625 155.405,205.724 155.566 M150.256 157.715 C 150.156 157.876,150.568 158.008,151.172 158.008 C 151.775 158.008,152.188 157.876,152.088 157.715 C 151.988 157.554,151.576 157.422,151.172 157.422 C 150.768 157.422,150.355 157.554,150.256 157.715 M166.484 159.453 C 165.941 159.996,165.863 161.187,166.350 161.489 C 166.534 161.602,166.601 161.263,166.500 160.734 C 166.359 159.996,166.530 159.688,167.240 159.404 C 167.777 159.189,167.910 159.024,167.559 159.009 C 167.226 158.996,166.742 159.195,166.484 159.453 M129.948 164.323 C 129.805 164.466,129.699 164.950,129.712 165.397 C 129.735 166.152,129.764 166.144,130.107 165.287 C 130.373 164.622,130.694 164.421,131.254 164.567 C 131.682 164.679,131.934 164.612,131.813 164.417 C 131.559 164.005,130.328 163.943,129.948 164.323 M131.927 165.980 C 131.746 166.675,131.490 166.849,130.882 166.690 C 130.439 166.574,130.176 166.638,130.296 166.833 C 130.960 167.908,132.743 166.784,132.332 165.550 C 132.242 165.280,132.060 165.473,131.927 165.980 M136.645 189.125 C 136.796 190.160,136.719 190.318,136.166 190.106 C 135.776 189.956,135.604 190.011,135.745 190.239 C 136.317 191.164,137.109 190.594,137.109 189.258 C 137.109 188.506,136.964 187.891,136.786 187.891 C 136.609 187.891,136.545 188.446,136.645 189.125 M121.435 190.527 C 120.949 191.146,120.963 191.161,121.580 190.677 C 121.955 190.383,122.614 190.234,123.045 190.347 C 123.476 190.460,123.731 190.393,123.610 190.198 C 123.247 189.611,122.006 189.799,121.435 190.527 M120.748 192.029 C 120.636 194.058,123.468 194.725,123.730 192.732 C 123.805 192.163,123.740 192.195,123.450 192.871 C 122.820 194.337,121.441 193.845,120.986 191.992 C 120.801 191.241,120.792 191.242,120.748 192.029 M146.591 193.359 C 146.591 194.326,146.667 194.722,146.760 194.238 C 146.853 193.755,146.853 192.964,146.760 192.480 C 146.667 191.997,146.591 192.393,146.591 193.359 M179.204 197.542 C 179.690 197.635,180.393 197.632,180.766 197.534 C 181.140 197.436,180.742 197.360,179.883 197.364 C 179.023 197.368,178.718 197.448,179.204 197.542 M268.059 203.906 C 268.059 204.658,268.140 204.966,268.238 204.590 C 268.336 204.214,268.336 203.599,268.238 203.223 C 268.140 202.847,268.059 203.154,268.059 203.906 M237.479 204.590 L 236.133 206.055 237.598 204.709 C 238.961 203.456,239.242 203.125,238.944 203.125 C 238.879 203.125,238.219 203.784,237.479 204.590 M154.785 208.100 C 155.806 208.180,157.476 208.180,158.496 208.100 C 159.517 208.019,158.682 207.953,156.641 207.953 C 154.600 207.953,153.765 208.019,154.785 208.100 M139.941 208.863 C 140.317 208.961,140.933 208.961,141.309 208.863 C 141.685 208.765,141.377 208.684,140.625 208.684 C 139.873 208.684,139.565 208.765,139.941 208.863 M174.317 213.086 C 174.322 213.945,174.402 214.251,174.495 213.765 C 174.588 213.279,174.585 212.576,174.487 212.202 C 174.389 211.829,174.313 212.227,174.317 213.086 M139.041 217.871 L 137.695 219.336 139.160 217.990 C 140.524 216.737,140.805 216.406,140.506 216.406 C 140.441 216.406,139.782 217.065,139.041 217.871 M195.806 217.468 C 196.400 217.558,197.279 217.555,197.759 217.462 C 198.240 217.370,197.754 217.296,196.680 217.299 C 195.605 217.302,195.212 217.378,195.806 217.468 M212.402 217.854 C 212.886 217.947,213.677 217.947,214.160 217.854 C 214.644 217.761,214.248 217.685,213.281 217.685 C 212.314 217.685,211.919 217.761,212.402 217.854 M137.591 220.703 C 137.591 221.455,137.671 221.763,137.769 221.387 C 137.868 221.011,137.868 220.396,137.769 220.020 C 137.671 219.644,137.591 219.951,137.591 220.703 M172.559 231.916 C 173.042 232.009,173.833 232.009,174.316 231.916 C 174.800 231.823,174.404 231.747,173.438 231.747 C 172.471 231.747,172.075 231.823,172.559 231.916 M214.484 232.923 C 214.467 233.306,214.058 233.778,213.574 233.972 C 212.979 234.211,212.901 234.333,213.331 234.350 C 214.134 234.382,214.982 233.389,214.716 232.728 C 214.592 232.418,214.503 232.492,214.484 232.923 M173.344 249.104 C 173.830 249.198,174.533 249.194,174.907 249.097 C 175.280 248.999,174.883 248.922,174.023 248.927 C 173.164 248.931,172.858 249.011,173.344 249.104 M148.555 258.984 C 148.555 260.166,148.628 260.649,148.717 260.059 C 148.807 259.468,148.807 258.501,148.717 257.910 C 148.628 257.319,148.555 257.803,148.555 258.984 M188.002 261.133 C 188.005 262.207,188.081 262.600,188.171 262.006 C 188.261 261.413,188.258 260.534,188.166 260.053 C 188.073 259.573,187.999 260.059,188.002 261.133 M203.686 262.598 L 202.539 263.867 203.809 262.720 C 204.507 262.089,205.078 261.518,205.078 261.450 C 205.078 261.149,204.756 261.414,203.686 262.598 M197.563 268.636 C 198.049 268.729,198.752 268.726,199.126 268.628 C 199.499 268.530,199.102 268.454,198.242 268.458 C 197.383 268.462,197.077 268.542,197.563 268.636 M158.626 277.096 C 159.414 277.785,160.695 278.196,160.206 277.603 C 159.911 277.246,159.399 276.953,159.067 276.953 C 158.735 276.953,158.537 277.017,158.626 277.096 M149.317 279.841 C 149.545 281.574,151.996 281.477,151.928 279.737 C 151.912 279.307,151.789 279.386,151.550 279.980 C 151.356 280.464,150.922 280.859,150.586 280.859 C 150.250 280.859,149.805 280.464,149.597 279.980 C 149.307 279.305,149.242 279.272,149.317 279.841 M197.687 297.766 C 197.670 298.149,197.261 298.622,196.777 298.816 C 196.183 299.055,196.104 299.177,196.534 299.194 C 197.337 299.225,198.185 298.233,197.919 297.572 C 197.795 297.261,197.706 297.336,197.687 297.766 M211.621 319.153 C 212.104 319.347,212.514 319.819,212.531 320.202 C 212.550 320.633,212.638 320.707,212.763 320.397 C 213.029 319.736,212.181 318.743,211.378 318.775 C 210.948 318.792,211.026 318.914,211.621 319.153 M181.275 321.925 C 181.243 322.728,182.236 323.575,182.897 323.310 C 183.207 323.185,183.133 323.097,182.702 323.078 C 182.319 323.061,181.847 322.651,181.653 322.168 C 181.414 321.573,181.292 321.495,181.275 321.925 " stroke="none" fill="#c75136" fill-rule="evenodd"></path></g></svg>